<?xml version="1.0" encoding="UTF-8" standalone="no"?>
<svg width="100px" height="100px" viewBox="0 0 100 100" version="1.1" xmlns="http://www.w3.org/2000/svg" xmlns:xlink="http://www.w3.org/1999/xlink">
    <!-- Generator: Sketch 40.1 (33804) - http://www.bohemiancoding.com/sketch -->
    <title>theme_Avatar G+ Copy</title>
    <desc>Created with Sketch.</desc>
    <defs></defs>
    <g id="Page-1" stroke="none" stroke-width="1" fill="none" fill-rule="evenodd">
        <g id="theme_Avatar-G+-Copy" fill="#FFFFFF">
            <path d="M54.3254753,76.1180201 C51.3791405,79.0562921 47.7218383,80.542959 43.6056881,80.8538258 C43.2542491,80.8804013 42.9064054,80.8904509 42.5585618,80.9020638 C41.728276,80.9272994 40.9081019,80.9020638 40.096242,80.8303768 C40.0456833,80.8270269 39.9953493,80.8218905 39.9953493,80.8218905 C39.1632659,80.7435038 38.3936505,80.6197824 37.6339221,80.447823 C37.5566236,80.4310737 37.4808979,80.4094113 37.4035993,80.3908754 C36.6557803,80.2106531 35.921219,79.9835327 35.1967693,79.6994648 C35.1295825,79.6726659 35.0623956,79.6393907 34.9934111,79.6108052 C34.2539062,79.3084247 33.5245131,78.9578062 32.8135458,78.5334909 C28.0435033,75.6954913 25.413104,71.3824376 24.478555,66.0503572 C23.6215293,61.1544282 24.1390254,56.3819974 26.6316804,51.9771576 C29.4083628,47.0778788 33.6303492,44.21978 39.2491033,43.4479728 C40.366787,43.294326 41.4709885,43.2275521 42.5585618,43.2440781 C45.6091598,43.2925394 48.5334736,44.0393343 51.2681361,45.6778615 C55.7995416,48.392363 58.3036566,52.524971 59.3510076,57.5814698 C59.6550338,59.0496009 59.7291865,60.5630667 59.8215403,61.3281742 C59.7491852,67.4351884 58.2113027,72.2444677 54.3254753,76.1180201 M70.0388867,47.9314226 C67.134347,41.8409343 62.7393376,37.1870884 56.6381415,34.1753428 C51.6294621,31.7015844 46.3333848,30.7962295 40.7768741,31.2839688 C39.2306774,31.4208664 37.7464995,31.6997979 36.3144531,32.0991009 C31.9562953,33.1230408 28.1745065,35.0023111 24.9845912,37.7317753 L24.9845912,8 L12,12.2929545 L12.0224705,91.4909645 L25.0131287,91.4909645 L25.0131287,86.3478161 C26.1811465,87.3181582 27.4165758,88.2436123 28.7998611,89.0672307 C31.7630489,90.8310425 34.8909455,91.920193 38.126476,92.4847557 C41.3482994,93.137978 44.6375345,93.1413278 47.9806987,92.6569384 C54.4699608,91.7180849 60.0266962,88.918497 64.5360806,84.2396388 C70.5330135,78.0207393 73.0708342,70.3850733 73.0944283,61.9009999 C73.1079106,57.0519689 72.1466217,52.351225 70.0388867,47.9314226 Z M87.7105142,21.7300178 C87.7105142,17.0324005 83.8788408,13.2245053 79.1523912,13.2245053 C74.4257168,13.2245053 70.5940434,17.0324005 70.5940434,21.7300178 C70.5940434,26.4276352 74.4257168,30.2357536 79.1523912,30.2357536 C83.8788408,30.2357536 87.7105142,26.4276352 87.7105142,21.7300178 Z" id="Combined-Shape"></path>
        </g>
    </g>
</svg>